<svg xmlns="http://www.w3.org/2000/svg" width="48" height="48" fill="none" viewBox="0 0 48 48"><rect width="48" height="48" fill="#3A3B59" rx="8"/><path fill="url(#paint0_linear_4272_17341)" d="M7 12C7 9.79086 8.79086 8 11 8L37 8C39.2091 8 41 9.79086 41 12V30C41 32.2091 39.2091 34 37 34H11C8.79086 34 7 32.2091 7 30L7 12Z"/><rect width="27.5" height=".5" x="10.25" y="14.25" stroke="#3A3B59" stroke-width=".5" rx=".25"/><rect width="27.5" height=".5" x="10.25" y="21.25" stroke="#3A3B59" stroke-width=".5" rx=".25"/><rect width="27.5" height=".5" x="10.25" y="28.25" stroke="#3A3B59" stroke-width=".5" rx=".25"/><rect width="4" height="6" x="14" y="11" fill="#947DFF" rx="2"/><rect width="4" height="6" x="30" y="18" fill="#947DFF" rx="2"/><rect width="4" height="6" x="19" y="25" fill="#947DFF" rx="2"/><rect width="20" height="4" x="14" y="36" fill="#AF9EFF" rx="2"/><defs><linearGradient id="paint0_linear_4272_17341" x1="35.51" x2="20.422" y1="10.979" y2="35.562" gradientUnits="userSpaceOnUse"><stop stop-color="#F07EFF"/><stop offset="1" stop-color="#FFF480"/></linearGradient></defs></svg>