<svg xmlns="http://www.w3.org/2000/svg" width="40" height="40" fill="none" viewBox="0 0 40 40"><rect width="40" height="40" fill="#F3EFFA" rx="8"/><path fill="url(#paint0_linear_1091_20131)" d="M17 6C17 4.89543 17.8954 4 19 4H33C34.1046 4 35 4.89543 35 6V16C35 17.1046 34.1046 18 33 18H19C17.8954 18 17 17.1046 17 16V6Z"/><rect width="18" height="1" x="17" y="8" fill="#D361E7"/><rect width="6" height="1" x="27" y="6" fill="#B545CA" rx=".5"/><rect width="1" height="1" x="19" y="6" fill="#F4E560" rx=".5"/><rect width="6" height="1" x="27" y="11" fill="#B545CA" rx=".5"/><rect width="1" height="1" x="19" y="11" fill="#7958FF" rx=".5"/><rect width="1" height="1" x="21" y="11" fill="#F4E560" rx=".5"/><rect width="6" height="1" x="27" y="16" fill="#B545CA" rx=".5"/><rect width="1" height="1" x="19" y="16" fill="#F4E560" rx=".5"/><rect width="1" height="1" x="21" y="16" fill="#F4E560" rx=".5"/><rect width="18" height="1" x="17" y="13" fill="#D361E7"/><path fill="url(#paint1_linear_1091_20131)" d="M5 24C5 22.8954 5.89543 22 7 22H21C22.1046 22 23 22.8954 23 24V34C23 35.1046 22.1046 36 21 36H7C5.89543 36 5 35.1046 5 34V24Z"/><rect width="18" height="1" x="5" y="26" fill="#947DFF"/><rect width="6" height="1" x="15" y="24" fill="#7958FF" rx=".5"/><rect width="1" height="1" x="7" y="24" fill="#FFEAFE" rx=".5"/><rect width="6" height="1" x="15" y="29" fill="#7958FF" rx=".5"/><rect width="1" height="1" x="7" y="29" fill="#FFEAFE" rx=".5"/><rect width="1" height="1" x="9" y="29" fill="#FFEAFE" rx=".5"/><rect width="6" height="1" x="15" y="34" fill="#7958FF" rx=".5"/><rect width="1" height="1" x="7" y="34" fill="#FFEAFE" rx=".5"/><rect width="1" height="1" x="9" y="34" fill="#FFEAFE" rx=".5"/><rect width="18" height="1" x="5" y="31" fill="#947DFF"/><g style="mix-blend-mode:multiply"><path stroke="#C9C5D0" stroke-width="2" d="M20 27C24.4183 27 28 23.4183 28 19M12 20C12 15.5817 15.5817 12 20 12"/></g><defs><linearGradient id="paint0_linear_1091_20131" x1="12.5" x2="36.414" y1="13.333" y2="9.979" gradientUnits="userSpaceOnUse"><stop stop-color="#E4A3FB"/><stop offset="1" stop-color="#EC78FF"/></linearGradient><linearGradient id="paint1_linear_1091_20131" x1="3.521" x2="21.363" y1="30.021" y2="21.551" gradientUnits="userSpaceOnUse"><stop stop-color="#492EF3"/><stop offset="1" stop-color="#CF69FF"/></linearGradient></defs></svg>