<svg xmlns="http://www.w3.org/2000/svg" width="40" height="40" fill="none" viewBox="0 0 40 40"><rect width="40" height="40" fill="#3A3B59" rx="8"/><rect width="25" height="19" x="7.5" y="11" fill="url(#paint0_linear_1091_20258)" opacity=".8" rx="2"/><path fill="#5D34F2" d="M7.5 15.0715H32.5V13.0001C32.5 11.8955 31.6046 11.0001 30.5 11.0001H9.5C8.39543 11.0001 7.5 11.8955 7.5 13.0001V15.0715Z"/><rect width="8.333" height="1.357" x="10.277" y="17.786" fill="#D3BCF3" rx=".679"/><rect width="16.667" height="1.357" x="10.277" y="21.857" fill="#D3BCF3" rx=".679"/><path fill="#F4E560" d="M29.3509 25C29.6075 24.5556 30.249 24.5556 30.5056 25L36.2791 35C36.5357 35.4444 36.2149 36 35.7017 36H24.1547C23.6415 36 23.3208 35.4444 23.5774 35L29.3509 25Z" opacity=".6"/><g style="mix-blend-mode:multiply"><circle cx="10" cy="10" r="6" fill="#F07EFF"/></g><defs><linearGradient id="paint0_linear_1091_20258" x1="5.446" x2="30.012" y1="21.885" y2="9.951" gradientUnits="userSpaceOnUse"><stop stop-color="#492EF3"/><stop offset="1" stop-color="#CF69FF"/></linearGradient></defs></svg>