<svg xmlns="http://www.w3.org/2000/svg" width="32" height="32" fill="none" viewBox="0 0 32 32"><rect width="2" height="8" x="15" fill="currentColor" opacity=".48" rx="1"/><rect width="2" height="8" x="15" y="24" fill="currentColor" opacity=".96" rx="1"/><rect width="2" height="8" y="17" fill="currentColor" opacity=".72" rx="1" transform="rotate(-90 0 17)"/><rect width="2" height="8" x="24" y="17" fill="currentColor" opacity=".24" rx="1" transform="rotate(-90 24 17)"/><rect width="2" height="8" x="29.356" y="7.134" fill="currentColor" opacity=".32" rx="1" transform="rotate(60 29.3564 7.13403)"/><rect width="2" height="8" x="8.572" y="19.134" fill="currentColor" opacity=".8" rx="1" transform="rotate(60 8.57227 19.134)"/><rect width="2" height="8" x="1.644" y="8.866" fill="currentColor" opacity=".64" rx="1" transform="rotate(-60 1.64355 8.86597)"/><rect width="2" height="8" x="22.428" y="20.866" fill="currentColor" opacity=".16" rx="1" transform="rotate(-60 22.4277 20.866)"/><rect width="2" height="8" x="23.134" y="1.644" fill="currentColor" opacity=".4" rx="1" transform="rotate(30 23.1338 1.64355)"/><rect width="2" height="8" x="11.134" y="22.428" fill="currentColor" opacity=".88" rx="1" transform="rotate(30 11.1338 22.4282)"/><rect width="2" height="8" x="7.134" y="2.644" fill="currentColor" opacity=".56" rx="1" transform="rotate(-30 7.13379 2.64355)"/><rect width="2" height="8" x="19.134" y="23.428" fill="currentColor" opacity=".08" rx="1" transform="rotate(-30 19.1338 23.4282)"/></svg>